<mxfile host="app.diagrams.net" agent="Mozilla/5.0 (Windows NT 10.0; Win64; x64) AppleWebKit/537.36 (KHTML, like Gecko) Chrome/131.0.0.0 Safari/537.36" version="24.8.9">
  <diagram name="第 1 页" id="Dy-1f6BZiAA4YUqTE4vj">
    <mxGraphModel dx="2261" dy="786" grid="1" gridSize="10" guides="1" tooltips="1" connect="1" arrows="1" fold="1" page="1" pageScale="1" pageWidth="827" pageHeight="1169" math="0" shadow="0">
      <root>
        <mxCell id="0" />
        <mxCell id="1" parent="0" />
        <mxCell id="Hp2XNec5KFZqOxDipp3U-3" style="edgeStyle=orthogonalEdgeStyle;rounded=0;orthogonalLoop=1;jettySize=auto;html=1;" edge="1" parent="1" source="Hp2XNec5KFZqOxDipp3U-1" target="Hp2XNec5KFZqOxDipp3U-2">
          <mxGeometry relative="1" as="geometry" />
        </mxCell>
        <mxCell id="Hp2XNec5KFZqOxDipp3U-1" value="代数系统&lt;div&gt;&amp;lt;G:o&amp;gt;&lt;/div&gt;" style="rounded=1;whiteSpace=wrap;html=1;" vertex="1" parent="1">
          <mxGeometry x="50" y="60" width="120" height="60" as="geometry" />
        </mxCell>
        <mxCell id="Hp2XNec5KFZqOxDipp3U-8" value="" style="edgeStyle=orthogonalEdgeStyle;rounded=0;orthogonalLoop=1;jettySize=auto;html=1;" edge="1" parent="1" source="Hp2XNec5KFZqOxDipp3U-2" target="Hp2XNec5KFZqOxDipp3U-7">
          <mxGeometry relative="1" as="geometry" />
        </mxCell>
        <mxCell id="Hp2XNec5KFZqOxDipp3U-16" value="" style="edgeStyle=orthogonalEdgeStyle;rounded=0;orthogonalLoop=1;jettySize=auto;html=1;" edge="1" parent="1" source="Hp2XNec5KFZqOxDipp3U-2" target="Hp2XNec5KFZqOxDipp3U-15">
          <mxGeometry relative="1" as="geometry" />
        </mxCell>
        <mxCell id="Hp2XNec5KFZqOxDipp3U-2" value="满足结合律" style="strokeWidth=2;html=1;shape=mxgraph.flowchart.decision;whiteSpace=wrap;" vertex="1" parent="1">
          <mxGeometry x="60" y="150" width="100" height="100" as="geometry" />
        </mxCell>
        <mxCell id="Hp2XNec5KFZqOxDipp3U-12" value="" style="edgeStyle=orthogonalEdgeStyle;rounded=0;orthogonalLoop=1;jettySize=auto;html=1;" edge="1" parent="1" source="Hp2XNec5KFZqOxDipp3U-7" target="Hp2XNec5KFZqOxDipp3U-11">
          <mxGeometry relative="1" as="geometry" />
        </mxCell>
        <mxCell id="Hp2XNec5KFZqOxDipp3U-18" value="" style="edgeStyle=orthogonalEdgeStyle;rounded=0;orthogonalLoop=1;jettySize=auto;html=1;" edge="1" parent="1" source="Hp2XNec5KFZqOxDipp3U-7" target="Hp2XNec5KFZqOxDipp3U-17">
          <mxGeometry relative="1" as="geometry" />
        </mxCell>
        <mxCell id="Hp2XNec5KFZqOxDipp3U-7" value="存在单位元" style="strokeWidth=2;html=1;shape=mxgraph.flowchart.decision;whiteSpace=wrap;" vertex="1" parent="1">
          <mxGeometry x="60" y="250" width="100" height="100" as="geometry" />
        </mxCell>
        <mxCell id="Hp2XNec5KFZqOxDipp3U-14" value="" style="edgeStyle=orthogonalEdgeStyle;rounded=0;orthogonalLoop=1;jettySize=auto;html=1;" edge="1" parent="1" source="Hp2XNec5KFZqOxDipp3U-11" target="Hp2XNec5KFZqOxDipp3U-13">
          <mxGeometry relative="1" as="geometry" />
        </mxCell>
        <mxCell id="Hp2XNec5KFZqOxDipp3U-20" value="" style="edgeStyle=orthogonalEdgeStyle;rounded=0;orthogonalLoop=1;jettySize=auto;html=1;" edge="1" parent="1" source="Hp2XNec5KFZqOxDipp3U-11" target="Hp2XNec5KFZqOxDipp3U-19">
          <mxGeometry relative="1" as="geometry" />
        </mxCell>
        <mxCell id="Hp2XNec5KFZqOxDipp3U-11" value="存在逆元" style="strokeWidth=2;html=1;shape=mxgraph.flowchart.decision;whiteSpace=wrap;" vertex="1" parent="1">
          <mxGeometry x="60" y="370" width="100" height="100" as="geometry" />
        </mxCell>
        <mxCell id="Hp2XNec5KFZqOxDipp3U-22" value="" style="edgeStyle=orthogonalEdgeStyle;rounded=0;orthogonalLoop=1;jettySize=auto;html=1;" edge="1" parent="1" source="Hp2XNec5KFZqOxDipp3U-13" target="Hp2XNec5KFZqOxDipp3U-21">
          <mxGeometry relative="1" as="geometry" />
        </mxCell>
        <mxCell id="Hp2XNec5KFZqOxDipp3U-24" value="" style="edgeStyle=orthogonalEdgeStyle;rounded=0;orthogonalLoop=1;jettySize=auto;html=1;" edge="1" parent="1" source="Hp2XNec5KFZqOxDipp3U-13" target="Hp2XNec5KFZqOxDipp3U-23">
          <mxGeometry relative="1" as="geometry" />
        </mxCell>
        <mxCell id="Hp2XNec5KFZqOxDipp3U-13" value="满足交换律" style="strokeWidth=2;html=1;shape=mxgraph.flowchart.decision;whiteSpace=wrap;" vertex="1" parent="1">
          <mxGeometry x="60" y="485" width="100" height="100" as="geometry" />
        </mxCell>
        <mxCell id="Hp2XNec5KFZqOxDipp3U-15" value="半群" style="whiteSpace=wrap;html=1;strokeWidth=2;" vertex="1" parent="1">
          <mxGeometry x="200" y="170" width="120" height="60" as="geometry" />
        </mxCell>
        <mxCell id="Hp2XNec5KFZqOxDipp3U-17" value="含幺半群&lt;div&gt;（幺半群）&lt;/div&gt;" style="whiteSpace=wrap;html=1;strokeWidth=2;" vertex="1" parent="1">
          <mxGeometry x="200" y="270" width="120" height="60" as="geometry" />
        </mxCell>
        <mxCell id="Hp2XNec5KFZqOxDipp3U-19" value="群" style="whiteSpace=wrap;html=1;strokeWidth=2;" vertex="1" parent="1">
          <mxGeometry x="200" y="390" width="120" height="60" as="geometry" />
        </mxCell>
        <mxCell id="Hp2XNec5KFZqOxDipp3U-21" value="Abel群&lt;div&gt;（交换群）&lt;/div&gt;" style="whiteSpace=wrap;html=1;strokeWidth=2;" vertex="1" parent="1">
          <mxGeometry x="200" y="505" width="120" height="60" as="geometry" />
        </mxCell>
        <mxCell id="Hp2XNec5KFZqOxDipp3U-26" value="" style="edgeStyle=orthogonalEdgeStyle;rounded=0;orthogonalLoop=1;jettySize=auto;html=1;" edge="1" parent="1" source="Hp2XNec5KFZqOxDipp3U-23" target="Hp2XNec5KFZqOxDipp3U-25">
          <mxGeometry relative="1" as="geometry" />
        </mxCell>
        <mxCell id="Hp2XNec5KFZqOxDipp3U-34" style="edgeStyle=orthogonalEdgeStyle;rounded=0;orthogonalLoop=1;jettySize=auto;html=1;" edge="1" parent="1" source="Hp2XNec5KFZqOxDipp3U-23" target="Hp2XNec5KFZqOxDipp3U-29">
          <mxGeometry relative="1" as="geometry" />
        </mxCell>
        <mxCell id="Hp2XNec5KFZqOxDipp3U-23" value="加法交换群&lt;div&gt;乘法幺半群&lt;/div&gt;&lt;div&gt;左右分配律&lt;/div&gt;" style="strokeWidth=2;html=1;shape=mxgraph.flowchart.decision;whiteSpace=wrap;" vertex="1" parent="1">
          <mxGeometry x="60" y="600" width="100" height="100" as="geometry" />
        </mxCell>
        <mxCell id="Hp2XNec5KFZqOxDipp3U-25" value="环" style="whiteSpace=wrap;html=1;strokeWidth=2;" vertex="1" parent="1">
          <mxGeometry x="200" y="620" width="120" height="60" as="geometry" />
        </mxCell>
        <mxCell id="Hp2XNec5KFZqOxDipp3U-39" value="" style="edgeStyle=orthogonalEdgeStyle;rounded=0;orthogonalLoop=1;jettySize=auto;html=1;" edge="1" parent="1" source="Hp2XNec5KFZqOxDipp3U-29" target="Hp2XNec5KFZqOxDipp3U-38">
          <mxGeometry relative="1" as="geometry" />
        </mxCell>
        <mxCell id="Hp2XNec5KFZqOxDipp3U-29" value="非零加法元素&lt;div&gt;关于0都有逆元&lt;/div&gt;" style="strokeWidth=2;html=1;shape=mxgraph.flowchart.decision;whiteSpace=wrap;" vertex="1" parent="1">
          <mxGeometry x="10" y="780" width="100" height="100" as="geometry" />
        </mxCell>
        <mxCell id="Hp2XNec5KFZqOxDipp3U-41" value="" style="edgeStyle=orthogonalEdgeStyle;rounded=0;orthogonalLoop=1;jettySize=auto;html=1;" edge="1" parent="1" source="Hp2XNec5KFZqOxDipp3U-30" target="Hp2XNec5KFZqOxDipp3U-40">
          <mxGeometry relative="1" as="geometry" />
        </mxCell>
        <mxCell id="Hp2XNec5KFZqOxDipp3U-30" value="乘法运算满足交换律" style="strokeWidth=2;html=1;shape=mxgraph.flowchart.decision;whiteSpace=wrap;" vertex="1" parent="1">
          <mxGeometry x="110" y="780" width="100" height="100" as="geometry" />
        </mxCell>
        <mxCell id="Hp2XNec5KFZqOxDipp3U-35" style="edgeStyle=orthogonalEdgeStyle;rounded=0;orthogonalLoop=1;jettySize=auto;html=1;entryX=0.47;entryY=0.07;entryDx=0;entryDy=0;entryPerimeter=0;" edge="1" parent="1" source="Hp2XNec5KFZqOxDipp3U-23" target="Hp2XNec5KFZqOxDipp3U-30">
          <mxGeometry relative="1" as="geometry" />
        </mxCell>
        <mxCell id="Hp2XNec5KFZqOxDipp3U-38" value="除环" style="whiteSpace=wrap;html=1;strokeWidth=2;" vertex="1" parent="1">
          <mxGeometry x="-50" y="910" width="120" height="60" as="geometry" />
        </mxCell>
        <mxCell id="Hp2XNec5KFZqOxDipp3U-40" value="交换环" style="whiteSpace=wrap;html=1;strokeWidth=2;" vertex="1" parent="1">
          <mxGeometry x="150" y="910" width="120" height="60" as="geometry" />
        </mxCell>
        <mxCell id="Hp2XNec5KFZqOxDipp3U-49" value="" style="edgeStyle=orthogonalEdgeStyle;rounded=0;orthogonalLoop=1;jettySize=auto;html=1;" edge="1" parent="1" source="Hp2XNec5KFZqOxDipp3U-42" target="Hp2XNec5KFZqOxDipp3U-48">
          <mxGeometry relative="1" as="geometry" />
        </mxCell>
        <mxCell id="Hp2XNec5KFZqOxDipp3U-42" value="" style="strokeWidth=2;html=1;shape=mxgraph.flowchart.annotation_2;align=left;labelPosition=right;pointerEvents=1;direction=north;" vertex="1" parent="1">
          <mxGeometry x="60" y="1010" width="100" height="50" as="geometry" />
        </mxCell>
        <mxCell id="Hp2XNec5KFZqOxDipp3U-44" style="edgeStyle=orthogonalEdgeStyle;rounded=0;orthogonalLoop=1;jettySize=auto;html=1;" edge="1" parent="1" source="Hp2XNec5KFZqOxDipp3U-40" target="Hp2XNec5KFZqOxDipp3U-42">
          <mxGeometry relative="1" as="geometry" />
        </mxCell>
        <mxCell id="Hp2XNec5KFZqOxDipp3U-45" style="edgeStyle=orthogonalEdgeStyle;rounded=0;orthogonalLoop=1;jettySize=auto;html=1;" edge="1" parent="1" source="Hp2XNec5KFZqOxDipp3U-38" target="Hp2XNec5KFZqOxDipp3U-42">
          <mxGeometry relative="1" as="geometry" />
        </mxCell>
        <mxCell id="Hp2XNec5KFZqOxDipp3U-48" value="交换除环（域）" style="whiteSpace=wrap;html=1;align=center;strokeWidth=2;pointerEvents=1;" vertex="1" parent="1">
          <mxGeometry x="50" y="1060" width="120" height="60" as="geometry" />
        </mxCell>
      </root>
    </mxGraphModel>
  </diagram>
</mxfile>
